<svg xmlns="http://www.w3.org/2000/svg" xml:space="preserve" viewBox="0 0 50 50">
  <linearGradient id="a" x1="1.4688" x2="48.5312" y1="1.4688" y2="48.5312" gradientUnits="userSpaceOnUse">
    <stop offset="0" stop-color="#399be2"/>
    <stop offset="1" stop-color="#005b96"/>
  </linearGradient>
  <path fill="url(#a)" d="M45 50H5c-2.8 0-5-2.2-5-5V5c0-2.8 2.2-5 5-5h40c2.8 0 5 2.2 5 5v40c0 2.8-2.2 5-5 5z"/>
  <path fill="#fff" d="M37.8 25.5c.4.4 1.1.3 1.5-.1.2-.2.2-.4.2-.6v-9.1c0-.6-.5-1-1-1h-7.3c-.2-5.5-8.1-5.5-8.3 0h-7.3c-.6 0-1 .5-1 1V23c-5.5.2-5.5 8.1 0 8.3v7.3c0 .6.5 1 1 1h9.1c.6 0 1-.5 1-1.1 0-.2-.1-.5-.2-.6-1.8-2.1 1.2-4.8 3.1-2.8.7.8.7 2 0 2.8-.4.4-.3 1.1.1 1.5.2.2.4.3.7.3h9.1c.6 0 1-.5 1-1v-9.1c0-.6-.5-1-1.1-1-.2 0-.5.1-.6.2-.8.8-2.1.7-2.9-.1-1.8-2.2.9-4.9 2.9-3.2zm-1.4 5.7c.3 0 .7 0 1-.1v6.4h-6.3c.6-2.2-.8-4.5-3-5.1-2.2-.6-4.5.8-5.1 3-.2.7-.2 1.4 0 2.1h-6.4V30c0-.6-.5-1-1-1-.3.1-.7.1-1 .2-2.7-.1-2.7-4.1 0-4.1.2 0 .5 0 .7.1.5.2 1.1-.1 1.3-.6 0-.1.1-.2.1-.3v-7.5h7.5c.6 0 1-.5 1-1 0-.1 0-.2-.1-.3-.4-1.1.1-2.3 1.2-2.7 1.1-.4 2.3.1 2.7 1.2v.1c.1.2.1.4.1.7 0 .2 0 .5-.1.7-.2.5.1 1.1.6 1.3.1 0 .2.1.4.1h7.4v6.4c-2.2-.6-4.5.8-5 3-.6 2.2.8 4.5 3 5 .3-.1.7-.1 1-.1z"/>
</svg>
