<svg xmlns="http://www.w3.org/2000/svg" xml:space="preserve" id="Layer_1" x="0" y="0" version="1.1" viewBox="0 0 50 50">
  <linearGradient id="SVGID_1_" x1="1.4688" x2="48.5312" y1="1.4688" y2="48.5312" gradientUnits="userSpaceOnUse">
    <stop offset="0" stop-color="#399be2"/>
    <stop offset="1" stop-color="#005b96"/>
  </linearGradient>
  <path fill="url(#SVGID_1_)" d="M45 50H5c-2.8 0-5-2.2-5-5V5c0-2.8 2.2-5 5-5h40c2.8 0 5 2.2 5 5v40c0 2.8-2.2 5-5 5z"/>
  <path id="url" fill="#fff" fill-rule="evenodd" d="M15.2 15.3c13.5-12.5 32 6.1 19.6 19.6-8.6 8.7-23.7 2.4-23.6-9.8-.1-3.7 1.4-7.3 4-9.8zm19 17.1c1.5-1.9 2.4-4.2 2.6-6.6h-5.2c0 1.6-.2 3.2-.6 4.7 1.1.6 2.1 1.3 2.9 2.1l.3-.2zm-21-6.5c.2 2.5 1.2 4.9 2.8 6.8.9-.8 1.9-1.5 2.9-2.1-.3-1.6-.5-3.1-.6-4.7h-5.1zm2.6-8.3c-1.5 1.9-2.4 4.2-2.6 6.6h5.2c0-1.6.2-3.2.6-4.7-1.1-.6-2.1-1.3-2.9-2.1l-.3.2zm13.1.6c-2.2-6.8-6-6.5-8 .3 2.6 1 5.5 1 8.1 0 0-.1 0-.2-.1-.3zm-.2-4.4c.8 1.2 1.4 2.5 1.8 3.9.8-.4 1.5-1 2.2-1.6-1.1-1-2.5-1.8-4-2.3zm-9.3 3.6c0 .1-.1.2-.1.3-.8-.4-1.5-1-2.2-1.6 1.2-1 2.6-1.8 4.1-2.3-.8 1.1-1.3 2.4-1.8 3.6zm-.1 14.9c-.8.4-1.5 1-2.2 1.6 1.2 1 2.6 1.8 4.1 2.3-.8-1.2-1.4-2.5-1.9-3.9zm1.6-.7c2.1 7 6 7 8.1 0-2.6-1-5.5-1-8.1 0zm-.9-7.4h9.9c0-1.4-.2-2.7-.4-4-2.9 1-6.1 1-9 0-.3 1.3-.4 2.7-.5 4zm0 1.7c0 1.4.2 2.7.4 4 2.9-1 6.1-1 9 0 .3-1.3.4-2.7.4-4H20zm10.6 6.4c-.4 1.4-1 2.7-1.9 3.9 1.5-.5 2.9-1.3 4.1-2.3-.7-.6-1.4-1.2-2.2-1.6zm.4-12.9c.3 1.6.5 3.1.6 4.7h5.2c-.2-2.5-1.1-4.9-2.8-6.8-.9.9-1.9 1.6-3 2.1z" clip-rule="evenodd"/>
</svg>
