<svg xmlns="http://www.w3.org/2000/svg" xml:space="preserve" id="Layer_1" x="0" y="0" version="1.1" viewBox="0 0 50 50">
  <linearGradient id="SVGID_1_" x1="1.4688" x2="48.5312" y1="1.4688" y2="48.5312" gradientUnits="userSpaceOnUse">
    <stop offset="0" stop-color="#399be2"/>
    <stop offset="1" stop-color="#005b96"/>
  </linearGradient>
  <path fill="url(#SVGID_1_)" d="M45 50H5c-2.8 0-5-2.2-5-5V5c0-2.8 2.2-5 5-5h40c2.8 0 5 2.2 5 5v40c0 2.8-2.2 5-5 5z"/>
  <path id="label" fill="#fff" d="m36.7 29.2-6.5 7c-.6.6-1.3 1-2.2 1-.8 0-1.6-.3-2.2-.8L14.2 25.5c-.6-.6-1-1.3-1-2.1l-.8-7.3c-.1-1.7 1.3-3.2 3-3.2h.1l7.3.3c.8 0 1.6.3 2.2.8l11.6 10.8c1.3 1.1 1.4 3.1.1 4.4.1-.1.1-.1 0 0zM14.1 16l.8 7.3c0 .4.2.7.4 1L27 35.1c.3.2.6.4 1 .4s.7-.2 1-.4l6.5-7c.5-.6.5-1.4-.1-1.9l-11.6-11c-.3-.3-.6-.4-1-.4h-.1l-7.3-.3c-.7.1-1.3.7-1.3 1.5zm8 6.1c-1.1 1.2-3 1.3-4.2.2-1.2-1.1-1.3-3-.2-4.2 1.1-1.2 3-1.3 4.2-.2.6.6 1 1.4 1 2.2 0 .7-.3 1.4-.8 2zM19 19.2c-.5.5-.5 1.3 0 1.8s1.3.5 1.8 0 .5-1.3 0-1.8c-.2-.2-.5-.3-.9-.4-.4 0-.7.1-.9.4z"/>
</svg>
