<svg xmlns="http://www.w3.org/2000/svg" xml:space="preserve" id="Layer_1" x="0" y="0" version="1.1" viewBox="0 0 50 50">
  <linearGradient id="SVGID_1_" x1="1.45" x2="48.55" y1="48.55" y2="1.45" gradientTransform="matrix(1 0 0 -1 0 50)" gradientUnits="userSpaceOnUse">
    <stop offset="0" stop-color="#eb66a2"/>
    <stop offset="1" stop-color="#e200e9"/>
  </linearGradient>
  <path fill="url(#SVGID_1_)" d="M45 50H5c-2.8 0-5-2.2-5-5V5c0-2.8 2.2-5 5-5h40c2.8 0 5 2.2 5 5v40c0 2.8-2.2 5-5 5z"/>
  <path id="quiz" fill="#fff" d="M37.7 22.9c-.9 0-1.3.7-1.3 1.6V36H13.6V13.2h14.1c2.1.1 2.1-2.7 0-2.6H12.6c-.9 0-1.6.7-1.6 1.5V37c0 .9.7 1.6 1.5 1.6h24.8c.9 0 1.6-.7 1.6-1.5V24.4c.1-.8-.3-1.5-1.2-1.5zm-17.1-.8c-.7-.5-1.7-.4-2.2.3-.5.7-.4 1.7.3 2.3l4.8 3.5c.6.4 1.1.6 1.7 0 2.2-2.4 4.5-4.9 7.6-8.4s3.5-4.2 5.7-6.5c.4-.5.6-1.2.3-1.8s-.9-1-1.5-1c-.4 0-.8.2-1.1.5-2.2 2.4-2.6 3.1-5.7 6.6-2.7 3-4.3 4.8-6.4 7l-3.5-2.5z"/>
</svg>
