<svg xmlns="http://www.w3.org/2000/svg" xml:space="preserve" id="Layer_1" x="0" y="0" version="1.1" viewBox="0 0 50 50">
  <linearGradient id="SVGID_00000173859311009117609620000008517180477098023593_" x1="1.4688" x2="48.5312" y1="1.4688" y2="48.5312" gradientUnits="userSpaceOnUse">
    <stop offset="0" stop-color="#11a676"/>
    <stop offset="1" stop-color="#0b9400"/>
  </linearGradient>
  <path fill="url(#SVGID_00000173859311009117609620000008517180477098023593_)" d="M45 50H5c-2.8 0-5-2.2-5-5V5c0-2.8 2.2-5 5-5h40c2.8 0 5 2.2 5 5v40c0 2.8-2.2 5-5 5z"/>
  <path id="chat" fill="#fff" d="M41.6 23.1c-2.2-3.8-6.8-5.5-11-5.4-.6-1.9-1.8-3.5-3.5-4.6-5.6-3.8-14.9-3-18.6 3.1-2.4 4.2.1 8.8 4.1 10.8v4.2c0 .6.5 1 1 1 .3 0 .5-.1.7-.3l3.5-3.4c.6.1 1.1.1 1.7.1 1.7 5.1 7.8 7.3 12.8 6.8l3.5 3.4c.4.4 1.1.4 1.4 0 .2-.2.3-.4.3-.7V34c4-2 6.4-6.7 4.1-10.9zm-27.7 2.5c-3.7-1.7-5.6-5.2-3.7-8.4 1.8-3 5.5-4.3 8.9-4.3 2.3 0 4.7.6 6.6 1.9 1.2.8 2.1 1.9 2.7 3.2-4.4.6-9.3 3.9-9.3 8.7-.5 0-1.1 0-1.6-.1-.3 0-.6.1-.8.3L14.5 29v-2.5c0-.4-.2-.8-.6-.9zm8-1.6c3.2-5 11.2-5.5 15.8-2.2 1.6 1.1 2.8 2.9 2.8 4.8 0 2.3-1.7 4.5-4.4 5.8-.4.2-.6.5-.6.9v2.5l-2.1-2.1c-.2-.2-.5-.3-.8-.3-.5.1-1.1.1-1.6.1-1.3 0-2.6-.2-3.8-.6-4-1-7.6-4.8-5.3-8.9z"/>
</svg>
