<svg xmlns="http://www.w3.org/2000/svg" xml:space="preserve" id="Layer_1" x="0" y="0" version="1.1" viewBox="0 0 50 50">
  <linearGradient id="SVGID_1_" x1="1.45" x2="48.55" y1="48.55" y2="1.45" gradientTransform="matrix(1 0 0 -1 0 50)" gradientUnits="userSpaceOnUse">
    <stop offset="0" stop-color="#399be2"/>
    <stop offset="1" stop-color="#005b96"/>
  </linearGradient>
  <path fill="url(#SVGID_1_)" d="M45 50H5c-2.8 0-5-2.2-5-5V5c0-2.8 2.2-5 5-5h40c2.8 0 5 2.2 5 5v40c0 2.8-2.2 5-5 5z"/>
  <path id="h5p" fill="#fff" d="M26.6 25.5c-.8-.7-2-.5-2.7.3l-.3.3-1.9-.3c-1-.1-1.9-.3-1.9-.3 0-.3.1-.5.1-.8.2-.7 1.4-6.4 1.5-6.7v-.2H18v6h-4.7v-6H9v14h4.3v-5.2H18V32h5.1c-.2-.1-.3-.2-.5-.2-.9-.4-1.7-1-2.2-1.9-.3-.5-.7-1.4-.6-1.5.6-.1 1.3-.2 1.9-.3l1.9-.3.3.4c.7.8 1.9.9 2.7.3.8-.7.9-1.9.3-2.7l-.3-.3zM41 22.2c0-.5 0-1.1-.2-1.5-.4-1.3-1.3-2.1-2.8-2.5-.5-.1-.8-.2-3.8-.2H31v2.9h-6.4l-.2 1c-.1.5-.2 1-.3 1.1 0 .1 0 .1.1.1s.4-.1.7-.2c.6-.2.7-.2 1.8-.2s1.2 0 1.8.2c.7.2 1.4.7 1.9 1.2.8.8 1.2 1.9 1.2 3.1 0 2.2-1.3 4.2-3 4.8-.2 0-.3.1-.4.2.8-.2 1.7-.2 2.5-.2h2.5v-5.2h1.2c1.2 0 2.3 0 3.5-.2 1.5-.3 2.6-1.4 3-2.9.1-.5.2-1 .1-1.5zm-4.2.6c-.2.5-.6.9-1 1-.5.1-1 .2-1.5.2h-1.1v-3.3h1.1c.5 0 .9 0 1.4.1.9.4 1.3 1.2 1.1 2z"/>
</svg>
