<svg xmlns="http://www.w3.org/2000/svg" xml:space="preserve" id="Layer_1" x="0" y="0" version="1.1" viewBox="0 0 50 50">
  <linearGradient id="SVGID_00000095309642154424870500000015727132334485644208_" x1="1.4688" x2="48.5312" y1="1.4688" y2="48.5312" gradientUnits="userSpaceOnUse">
    <stop offset="0" stop-color="#eb66a2"/>
    <stop offset="1" stop-color="#e200e9"/>
  </linearGradient>
  <path fill="url(#SVGID_00000095309642154424870500000015727132334485644208_)" d="M45 50H5c-2.8 0-5-2.2-5-5V5c0-2.8 2.2-5 5-5h40c2.8 0 5 2.2 5 5v40c0 2.8-2.2 5-5 5z"/>
  <path id="assign" fill="#fff" d="M23.9 41.3c-.4 0-.8-.3-.8-.8v-3.6h-7.8c-.7 0-1.3-.6-1.3-1.3V11.5c0-.7.6-1.3 1.3-1.3h14.3c.4 0 .7.1.9.4l5.1 5.1c.3.2.4.6.4.9v19.1c0 .7-.6 1.3-1.3 1.3h-7.8v3.6c0 .4-.4.8-.8.8h-2.2zm9.9-6.6V19.1h-5.5c-.7 0-1.3-.6-1.3-1.3v-5.5H16.2v22.3h6.9v-3.3h-2.2c-.5 0-.8-.4-.8-.8 0-.2.1-.4.2-.5l4.2-5.2c.3-.3.8-.4 1.1-.1.1 0 .1.1.1.2l4.1 5.2c.3.4.2.9-.2 1.2-.1.1-.3.2-.5.2h-2.2v3.3l6.9-.1zm-4.4-18h3.8l-3.8-3.8v3.8z"/>
</svg>
