<svg xmlns="http://www.w3.org/2000/svg" xml:space="preserve" id="Layer_1" x="0" y="0" version="1.1" viewBox="0 0 50 50">
  <linearGradient id="SVGID_1_" x1="1.45" x2="48.55" y1="48.55" y2="1.45" gradientTransform="matrix(1 0 0 -1 0 50)" gradientUnits="userSpaceOnUse">
    <stop offset="0" stop-color="#399be2"/>
    <stop offset="1" stop-color="#005b96"/>
  </linearGradient>
  <path fill="url(#SVGID_1_)" d="M45 50H5c-2.8 0-5-2.2-5-5V5c0-2.8 2.2-5 5-5h40c2.8 0 5 2.2 5 5v40c0 2.8-2.2 5-5 5z"/>
  <path id="ims" fill="#fff" d="M18.5 26.5h13.2c.4 0 .7-.3.7-.7v-8.3c0-.1 0-.2-.1-.3L29.8 13c-.1-.2-.3-.3-.6-.3h-8.3c-.2 0-.5.1-.6.3l-2.5 4.1c-.1.1-.1.2-.1.3v8.3c.1.5.4.8.8.8zm7.2-12.4h3.1l1.7 2.8h-4.8v-2.8zm-4.4 0h3.1v2.8h-4.8l1.7-2.8zm-2.2 4.1H31v6.9H19.1v-6.9zM40.9 28l-2.5-4.2c-.1-.2-.3-.3-.6-.3l-3.3.1h-1.1v4.1l-7.6.1c-.3 0-.2.3-.2.6v8.2c0 .4.3.7.7.7h14c.4 0 .7-.3.7-.7v-8.3c0-.1 0-.2-.1-.3zm-6.1-3.2h2.7l1.7 2.8h-4.4v-2.8zm4.9 11.1H27V29h12.6v6.9h.1zm-15.5-8.2-7.6-.1v-4.1h-1.1l-3.2-.1c-.2 0-.5.1-.6.3L9.1 28c-.1.1-.1.2-.1.3v8.3c0 .4.3.7.7.7h14c.4 0 .7-.3.7-.7v-8.3c0-.4 0-.5-.2-.6zm-11.7-2.8h2.7v2.8h-4.3l1.6-2.8zm10.5 11H10.4V29H23v6.9z"/>
</svg>
