<svg xmlns="http://www.w3.org/2000/svg" xml:space="preserve" id="Layer_1" x="0" y="0" version="1.1" viewBox="0 0 50 50">
  <linearGradient id="SVGID_00000080180100838867598790000014330690328235477148_" x1="1.4688" x2="48.5312" y1="1.4688" y2="48.5312" gradientUnits="userSpaceOnUse">
    <stop offset="0" stop-color="#f7634d"/>
    <stop offset="1" stop-color="#ff7715"/>
  </linearGradient>
  <path fill="url(#SVGID_00000080180100838867598790000014330690328235477148_)" d="M45 50H5c-2.8 0-5-2.2-5-5V5c0-2.8 2.2-5 5-5h40c2.8 0 5 2.2 5 5v40c0 2.8-2.2 5-5 5z"/>
  <path id="wiki" fill="#fff" d="M39.5 23.5c-.1-.7-.5-1.3-1.1-1.7l-.2-.1c-.4-.2-.8-.3-1.3-.3-.2 0-.4 0-.6.1-.7.2-1.3.6-1.7 1.2-.2.2-.3.4-.3.7h-4.2c-.1-.4-.2-.8-.4-1.2-.3-.6-.7-1.1-1.2-1.5l1.1-2h.4c1.5 0 2.8-1.2 2.8-2.8 0-1.5-1.2-2.8-2.8-2.8s-2.8 1.2-2.8 2.8c0 .7.3 1.4.8 2l-1 1.8c-.5-.2-1-.3-1.5-.3s-1.1.1-1.6.3L21.8 16c.1-.2.3-.3.4-.5v-.1c.3-.6.4-1.3.2-2-.2-.6-.6-1.2-1.2-1.5l-.2-.2h-.1c-.4-.2-.8-.3-1.2-.3-.5 0-1 .1-1.4.4-.4.3-.8.7-1 1.2-.3.6-.4 1.4-.1 2.1.2.7.7 1.3 1.4 1.6.3.2.7.3 1.1.3.2 0 .4 0 .6-.1l2.1 3.6c-.6.6-1.1 1.3-1.4 2.1-.2.6-.3 1.3-.3 1.9l-3.8 1c-.9-1.6-2.9-2.3-4.5-1.4-1.7.9-2.4 2.9-1.5 4.5.9 1.6 2.9 2.3 4.5 1.4 1.1-.5 1.7-1.6 1.8-2.8l4-1.1c.3.6.7 1.1 1.2 1.5l-2.2 3.8c-.3-.1-.5-.1-.8-.1-1.8 0-3.2 1.5-3.2 3.3 0 .3 0 .5.1.8.4 1.7 2.1 2.7 3.8 2.3.8-.2 1.6-.8 2-1.5.4-.6.5-1.3.4-2-.1-.7-.4-1.3-.8-1.8l2.2-3.8c.5.2 1 .3 1.5.3h.4l1.2 4.6c-.5.3-.9.8-1 1.4-.2.7-.2 1.4.1 2.1.3.7.9 1.2 1.5 1.4.3.1.6.1.9.1.4 0 .8-.1 1.2-.3.6-.3 1.1-.9 1.4-1.6.1-.2.1-.4.1-.6.1-.5 0-1-.3-1.5-.3-.6-.8-1.1-1.5-1.4-.2-.1-.5-.1-.7-.1l-1.3-4.7h.1c.5-.3 1-.7 1.4-1.1.4-.5.7-1 .9-1.6 0-.1.1-.3.1-.5V24.8h4.2c.2.5.5 1 1 1.3.4.3 1 .5 1.5.5.9 0 1.8-.5 2.3-1.2.5-.5.7-1.2.6-1.9zM28.8 34.9c.2.1.4.3.5.5.1.2.1.5 0 .8-.1.2-.3.5-.5.6-.1.1-.3.1-.4.1-.1 0-.2 0-.3-.1-.2-.1-.4-.3-.5-.5-.1-.2-.1-.5 0-.8.1-.4.5-.7.9-.7.1 0 .2 0 .3.1zm-.6-9.9c-.2.8-.8 1.4-1.5 1.7-.9.5-2 .4-2.8-.1-.5-.3-.9-.8-1.2-1.3-.3-.7-.4-1.5-.1-2.3.3-.8.8-1.4 1.5-1.7.4-.2.9-.3 1.3-.3.3 0 .7 0 1 .1.7.2 1.4.8 1.7 1.5.3.8.4 1.6.1 2.4zm-12.1 2.1c0 1.2-1 2.2-2.2 2.2s-2.2-1-2.2-2.2c0-1.2 1-2.2 2.2-2.2 1.2.1 2.2 1 2.2 2.2zM30 14.4c.8 0 1.4.6 1.4 1.4s-.6 1.4-1.4 1.4-1.4-.6-1.4-1.4.6-1.4 1.4-1.4z"/>
</svg>
