<svg xmlns="http://www.w3.org/2000/svg" xml:space="preserve" id="Layer_1" x="0" y="0" version="1.1" viewBox="0 0 50 50">
  <linearGradient id="SVGID_00000099630700359513067480000007300972816513115839_" x1="1.45" x2="48.55" y1="48.55" y2="1.45" gradientTransform="matrix(1 0 0 -1 0 50)" gradientUnits="userSpaceOnUse">
    <stop offset="0" stop-color="#11a676"/>
    <stop offset="1" stop-color="#0b9400"/>
  </linearGradient>
  <path fill="url(#SVGID_00000099630700359513067480000007300972816513115839_)" d="M45 50H5c-2.8 0-5-2.2-5-5V5c0-2.8 2.2-5 5-5h40c2.8 0 5 2.2 5 5v40c0 2.8-2.2 5-5 5z"/>
  <path id="survey" fill="#fff" d="M17.8 28.4h-6c-.7 0-1.2.5-1.2 1.2v8.9c0 .7.5 1.2 1.2 1.2h6c.7 0 1.2-.5 1.2-1.2v-8.9c0-.6-.6-1.2-1.2-1.2zm-.7 9.5h-4.8v-7.7h4.8v7.7zm10.7-27.6h-5.6c-.7 0-1.2.5-1.2 1.2v27c0 .7.5 1.2 1.2 1.2h5.6c.7 0 1.2-.5 1.2-1.2v-27c0-.7-.5-1.2-1.2-1.2zm-.6 27.6h-4.4V12.1h4.4v25.8zM38.3 18h-6c-.7 0-1.2.5-1.2 1.2v19.3c0 .7.5 1.2 1.2 1.2h6c.7 0 1.2-.5 1.2-1.2V19.2c0-.7-.5-1.2-1.2-1.2zm-.6 19.9h-4.8V19.8h4.8v18.1z"/>
</svg>
