<svg xmlns="http://www.w3.org/2000/svg" xml:space="preserve" id="Layer_1" x="0" y="0" version="1.1" viewBox="0 0 50 50">
  <linearGradient id="SVGID_00000008145127243444790310000013539650811839133067_" x1="1.4688" x2="48.5312" y1="1.4688" y2="48.5312" gradientUnits="userSpaceOnUse">
    <stop offset="0" stop-color="#f7634d"/>
    <stop offset="1" stop-color="#ff7715"/>
  </linearGradient>
  <path fill="url(#SVGID_00000008145127243444790310000013539650811839133067_)" d="M45 50H5c-2.8 0-5-2.2-5-5V5c0-2.8 2.2-5 5-5h40c2.8 0 5 2.2 5 5v40c0 2.8-2.2 5-5 5z"/>
  <path id="glossary" fill="#fff" d="M36.5 36.5v-23c0-.3-.1-.5-.4-.7l-2.7-1.7c-.1-.1-.2-.1-.3-.1H14.2c-.4 0-.7.4-.7.8V38c0 .4.3.8.7.8h18.9c.1 0 .2 0 .3-.1l2.7-1.6c.3-.1.4-.3.4-.6zm-1.4-.5-1.4.8v-3.9l1.4-.8V36zm0-5.8-1.4.8v-3.9l1.4-.8v3.9zm0-5.7-1.4.8v-3.9l1.4-.8v3.9zm-.5-5.4-1.7 1.1c-.2.2-.4.4-.4.7v15.7H15.9V13.4h16.8l1.8 1 .1 4.7z"/>
</svg>
