<svg xmlns="http://www.w3.org/2000/svg" xml:space="preserve" viewBox="0 0 50 50">
  <linearGradient id="a" x1="1.45" x2="48.55" y1="1.45" y2="48.55" gradientUnits="userSpaceOnUse">
    <stop offset="0" stop-color="#f7634d"/>
    <stop offset="1" stop-color="#ff7715"/>
  </linearGradient>
  <path fill="url(#a)" d="M45 50H5c-2.8 0-5-2.2-5-5V5c0-2.8 2.2-5 5-5h40c2.8 0 5 2.2 5 5v40c0 2.8-2.2 5-5 5z"/>
  <path fill="#fff" d="M34.3 9.7H15.7c-2.6 0-4.7 2.1-4.7 4.7v14c0 2.6 2.1 4.6 4.7 4.6h3.4l5.2 4.4c.4.4 1.1.4 1.5 0L31 33h3.4c2.6 0 4.7-2.1 4.7-4.7v-14c-.1-2.5-2.2-4.6-4.8-4.6zm2.4 4.7v14c0 1.3-1 2.3-2.3 2.3H31c-.6 0-1.1.2-1.5.6L25 35l-4.4-3.8c-.4-.4-1-.6-1.5-.6h-3.4c-1.3 0-2.3-1-2.3-2.3v-14c0-1.3 1-2.3 2.3-2.3h18.7c1.2 0 2.3 1.1 2.3 2.4zm-20 8.5h14.4c.6 0 1.2-.4 1.2-1.1 0-.6-.4-1.2-1.1-1.2H16.9c-.6 0-1.2.4-1.2 1.1-.1.6.4 1.2 1 1.2zm.1-3.5H24c.6 0 1.1-.6 1.1-1.2s-.5-1-1.1-1.1h-7.1c-.6 0-1.1.6-1.1 1.2 0 .5.4 1 1 1.1zm14.3 4.8H16.9c-.6 0-1.2.4-1.2 1.1 0 .6.4 1.2 1.1 1.2h14.3c.6 0 1.2-.5 1.2-1.1 0-.7-.5-1.2-1.2-1.2z"/>
</svg>
