<svg xmlns="http://www.w3.org/2000/svg" xml:space="preserve" viewBox="0 0 50 50">
  <linearGradient id="a" x1="1.4688" x2="48.5312" y1="1.4688" y2="48.5312" gradientUnits="userSpaceOnUse">
    <stop offset="0" stop-color="#399be2"/>
    <stop offset="1" stop-color="#005b96"/>
  </linearGradient>
  <path fill="url(#a)" d="M45 50H5c-2.8 0-5-2.2-5-5V5c0-2.8 2.2-5 5-5h40c2.8 0 5 2.2 5 5v40c0 2.8-2.2 5-5 5z"/>
  <path fill="#fff" fill-rule="evenodd" d="M14.5 13.5c0-.7.6-1.3 1.3-1.3h13.5c.3 0 .7.1.9.4l4.8 4.8c.2.2.4.6.4.9v18.1c0 .7-.6 1.3-1.3 1.3H15.8c-.7 0-1.3-.6-1.3-1.3V13.5zm2.2.9v21.3h16.7V20.8h-5.2c-.7 0-1.3-.6-1.3-1.3v-5.2l-10.2.1zm16.1 4.1-3.6-3.6v3.6h3.6z" clip-rule="evenodd"/>
</svg>
