<svg xmlns="http://www.w3.org/2000/svg" xml:space="preserve" id="Layer_1" x="0" y="0" version="1.1" viewBox="0 0 50 50">
  <linearGradient id="SVGID_00000134240122934327732490000000875964174843682487_" x1="1.45" x2="48.55" y1="48.55" y2="1.45" gradientTransform="matrix(1 0 0 -1 0 50)" gradientUnits="userSpaceOnUse">
    <stop offset="0" stop-color="#f7634d"/>
    <stop offset="1" stop-color="#ff7715"/>
  </linearGradient>
  <path fill="url(#SVGID_00000134240122934327732490000000875964174843682487_)" d="M45 50H5c-2.8 0-5-2.2-5-5V5c0-2.8 2.2-5 5-5h40c2.8 0 5 2.2 5 5v40c0 2.8-2.2 5-5 5z"/>
  <path id="board_00000143610652536384193790000008023758046948062601_" fill="#fff" d="M33.2 22h6c.7 0 1.2-.4 1.2-1v-7c0-.5-.5-1-1.2-1h-6c-.7 0-1.2.4-1.2 1v7c0 .6.5 1 1.2 1zm.6-7.5h4.8v6.1h-4.8v-6.1zM22.5 34h6c.7 0 1.2-.5 1.2-1.2V14.3c0-.6-.5-1.2-1.2-1.2h-6c-.7 0-1.2.5-1.2 1.2v18.6c0 .6.5 1.1 1.2 1.1zm.6-19.2h4.8v17.4h-4.8V14.8zm-12.3 9.6h6c.7 0 1.2-.5 1.2-1.2v-8.9c0-.7-.5-1.2-1.2-1.2h-6c-.7 0-1.2.5-1.2 1.2v8.9c-.1.6.5 1.2 1.2 1.2zm.6-9.5h4.8v7.7h-4.8v-7.7zM10.8 38h6c.7 0 1.2-.5 1.2-1.2v-8.9c0-.7-.5-1.2-1.2-1.2h-6c-.7 0-1.2.5-1.2 1.2v8.9c-.1.6.5 1.2 1.2 1.2zm.6-9.5h4.8v7.7h-4.8v-7.7z"/>
</svg>
