<svg xmlns="http://www.w3.org/2000/svg" xml:space="preserve" viewBox="0 0 50 50">
  <linearGradient id="a" x1="1.45" x2="48.55" y1="48.55" y2="1.45" gradientTransform="matrix(1 0 0 -1 0 50)" gradientUnits="userSpaceOnUse">
    <stop offset="0" stop-color="#eb66a2"/>
    <stop offset="1" stop-color="#e200e9"/>
  </linearGradient>
  <path fill="url(#a)" d="M45 50H5c-2.8 0-5-2.2-5-5V5c0-2.8 2.2-5 5-5h40c2.8 0 5 2.2 5 5v40c0 2.8-2.2 5-5 5z"/>
  <path fill="#fff" d="M36.5 32.3c-1.8-1.2-4-1.8-6.1-1.7-1.9 0-3.7.4-5.4 1.3-1.7-.9-3.5-1.3-5.4-1.3-2.2-.1-4.3.5-6.1 1.7-1.6 1.1-2.5 2.7-2.5 4.3v1.7c0 .6.4 1.1 1 1.1h26c.6 0 1-.5 1-1.1v-1.6c0-1.7-.9-3.3-2.5-4.4zm-10.2 4.9H13v-.6c.1-2 2.3-3.1 4-3.6 2.5-.7 5.1-.3 7.3.9.9.6 1.9 1.5 1.9 2.7v.6h.1zm10.7 0h-8.7c.1-1.4-.4-2.8-1.4-3.9 2.7-1 5.6-.7 8.1.6 1 .6 1.9 1.5 1.9 2.7l.1.6zm-17.4-7.9c2.5 0 4.4-2 4.4-4.4-.2-5.9-8.7-5.9-8.9 0 0 2.4 2 4.4 4.5 4.4zM17 24.9c.1-1.4 1.3-2.5 2.7-2.5 1.3.1 2.4 1.1 2.5 2.5-.2 3.4-5.1 3.4-5.2 0zm13.1 4.4c2.5 0 4.4-2 4.4-4.4-.2-5.9-8.7-5.9-8.9 0 .1 2.4 2.1 4.4 4.5 4.4zm0-7c1.4 0 2.6 1.2 2.6 2.6-.1 3.4-5.1 3.4-5.2 0 0-1.4 1.2-2.6 2.6-2.6zM18.7 10.7c.6.2.8.9.6 1.4l-.6 1.4c4-1.7 8.6-1.6 12.6.1l-.6-1.5c-.2-.6 0-1.2.6-1.4s1.2 0 1.4.6l1.6 3.9c.2.6 0 1.2-.6 1.4l-3.9 1.6c-.6.2-1.2-.1-1.4-.6-.2-.5.1-1.2.6-1.4l1.3-.5c-3.4-1.4-7.3-1.4-10.7 0l1.4.6c.5.3.8.9.5 1.5-.2.5-.8.7-1.3.6l-3.9-1.6c-.6-.2-.8-.9-.6-1.4l1.6-3.9c.2-.8.8-1 1.4-.8z"/>
</svg>
