<svg xmlns="http://www.w3.org/2000/svg" xml:space="preserve" id="Layer_1" x="0" y="0" version="1.1" viewBox="0 0 50 50">
  <linearGradient id="SVGID_00000138543525113677931120000017983242849379711390_" x1="1.4688" x2="48.5312" y1="1.4688" y2="48.5312" gradientUnits="userSpaceOnUse">
    <stop offset="0" stop-color="#11a676"/>
    <stop offset="1" stop-color="#0b9400"/>
  </linearGradient>
  <path fill="url(#SVGID_00000138543525113677931120000017983242849379711390_)" d="M45 50H5c-2.8 0-5-2.2-5-5V5c0-2.8 2.2-5 5-5h40c2.8 0 5 2.2 5 5v40c0 2.8-2.2 5-5 5z"/>
  <path id="choice" fill="#fff" d="m40.3 15.1-6.4-2.8c-1.7-.8-3.4 1-2.7 2.7l.6 1.6c-2.8 1-5.1 1.9-6.7 3.4-1.6-1.4-3.9-2.4-6.7-3.4L19 15c.7-1.7-1-3.5-2.7-2.7l-6.4 2.8c-1 .5-1.5 1.7-1.1 2.7l2.7 6.7c.4 1.1 1.6 1.6 2.6 1.2.5-.2 1-.6 1.2-1.2l.6-1.6 4.2 1.7c1.2.4 1.9 1.6 1.9 2.8v8.9c0 .8.7 1.5 1.5 1.5h3.1c.8 0 1.5-.7 1.5-1.5v-9c-.1-1.2.7-2.4 1.9-2.8l4.2-1.7.6 1.6c.4 1.1 1.6 1.6 2.6 1.2.5-.2 1-.6 1.2-1.1l2.7-6.7c.5-1 0-2.2-1-2.7zM26.5 36.4h-3.1v-9.3c-.1-1-.4-2-1.1-2.8-.4-.6-1-1-1.7-1.3l-5.8-2.3-1.2 3.1c-.1.2-.3.3-.5.3-.1 0-.2-.1-.2-.2l-2.7-6.6c-.1-.2 0-.5.2-.6.2.1 6.8-3.3 6.8-2.7.1.1.2.4.1.5l-1.2 3.1c3.1 1.3 5.9 2 7.8 3.6.4.3.7.7 1 1.1.9 1.2 1.4 2.9 1.5 5.3l.1 8.8zm13.3-19.3-2.7 6.6c0 .1-.1.2-.2.2-.2.1-.4 0-.5-.2l-1.2-3.1-5.8 2.3c-.7.3-1.3.7-1.7 1.3-.4-1.1-.9-2.2-1.7-3.2 1.9-1.6 4.7-2.3 7.8-3.6l-1.2-3.1c-.1-.2 0-.4.1-.5 0-.6 6.7 2.8 6.8 2.7.3.1.4.4.3.6z"/>
</svg>
