<svg xmlns="http://www.w3.org/2000/svg" xml:space="preserve" id="Layer_1" x="0" y="0" version="1.1" viewBox="0 0 50 50">
  <linearGradient id="SVGID_00000033361917914074544730000002322205161270930093_" x1="1.45" x2="48.55" y1="48.55" y2="1.45" gradientTransform="matrix(1 0 0 -1 0 50)" gradientUnits="userSpaceOnUse">
    <stop offset="0" stop-color="#11a676"/>
    <stop offset="1" stop-color="#0b9400"/>
  </linearGradient>
  <path fill="url(#SVGID_00000033361917914074544730000002322205161270930093_)" d="M45 50H5c-2.8 0-5-2.2-5-5V5c0-2.8 2.2-5 5-5h40c2.8 0 5 2.2 5 5v40c0 2.8-2.2 5-5 5z"/>
  <path id="feedback" fill="#fff" d="M36.7 11.1c-.4-.2-.8-.1-1 .2-.1.1-6.8 6.6-13.6 7.2V30c6.7.6 13.5 7.1 13.6 7.2.4.4 1 .4 1.3 0 .2-.2.3-.4.3-.7V12c0-.4-.2-.7-.6-.9zm-1.2 23.5c-3.4-2.8-7.3-5.2-11.6-6.2v-8.3c4.3-.9 8.2-3.4 11.6-6.2v20.7zm5-12.3c-.3-.6-.8-1-1.3-1.3v6.5c1.8-1 2.4-3.4 1.3-5.2zM20.9 35.6c-.4-1.1-.6-1.7-.7-2v.1c.2.5.2.7.2.7s-.6-1.6-.2-.8c-.2-.6-.4-1.2-.5-1.8h-5.1c-.2 0-.5 0-.7-.1.3 2.3.9 4.5 1.8 6.6.1.4.5.6.9.6h4.7c.5 0 .9-.4.9-1 0-.2 0-.3-.1-.5-.6-.5-1-1.1-1.2-1.8zm-3.8 1.5c-.4-1.1-.8-2.3-1.1-3.5h2.2c.1.3.1.5.2.8s.2.6.3.8v.1c.1.2.2.6.3.9.1.3.3.6.4.9h-2.3zm3.1-7.2V18.6h-5.6c-3.1 0-5.7 2.5-5.7 5.7s2.5 5.7 5.7 5.7h5.6v-.1zm-9.5-5.7c0-2.1 1.7-3.8 3.8-3.8h3.8v7.7h-3.8c-2 0-3.8-1.7-3.8-3.9 0 .1 0 0 0 0z"/>
</svg>
