<svg xmlns="http://www.w3.org/2000/svg" xml:space="preserve" id="Layer_1" x="0" y="0" version="1.1" viewBox="0 0 50 50">
  <linearGradient id="SVGID_00000075855627673991984410000012904531757399607477_" x1="1.4688" x2="48.5312" y1="1.4688" y2="48.5312" gradientUnits="userSpaceOnUse">
    <stop offset="0" stop-color="#f7634d"/>
    <stop offset="1" stop-color="#ff7715"/>
  </linearGradient>
  <path fill="url(#SVGID_00000075855627673991984410000012904531757399607477_)" d="M45 50H5c-2.8 0-5-2.2-5-5V5c0-2.8 2.2-5 5-5h40c2.8 0 5 2.2 5 5v40c0 2.8-2.2 5-5 5z"/>
  <path id="database" fill="#fff" d="M37.7 11.7c-1-.7-2.1-1.2-3.2-1.5-6.3-1.6-12.8-1.6-19 0-1.1.3-2.2.8-3.2 1.5-.7.5-1.2 1.3-1.3 2.2v22.3c0 .9.5 1.7 1.3 2.2 1 .7 2.1 1.2 3.2 1.5 6.3 1.6 12.8 1.6 19.1 0 1.1-.3 2.2-.8 3.2-1.5.7-.5 1.2-1.3 1.3-2.2V13.9c-.1-.9-.6-1.7-1.4-2.2zM13.4 31.6c1.6.7 3.2 1.2 4.9 1.5 2.2.4 4.5.6 6.7.5 2.3 0 4.5-.2 6.7-.5 1.7-.3 3.3-.8 4.9-1.5v4.6s0 .1-.1.3c-.2.2-.4.3-.6.4-.7.4-1.5.7-2.3.9C28 39 22.1 39 16.4 37.7c-.8-.2-1.6-.5-2.3-.9-.2-.1-.4-.2-.6-.4-.1-.1-.1-.2-.1-.3v-4.5zm22.5-2.2c-.7.4-1.5.7-2.3.9-5.7 1.4-11.6 1.4-17.2 0-.8-.2-1.6-.5-2.3-.9-.2-.1-.4-.2-.6-.4-.1-.1-.1-.2-.1-.3v-4.5c1.6.7 3.2 1.2 4.9 1.5 4.5.7 9 .7 13.4 0 1.7-.3 3.3-.8 4.9-1.5v4.6s0 .1-.1.3c-.2 0-.4.2-.6.3zm0-7.5c-.7.4-1.5.7-2.3.9-5.7 1.4-11.5 1.4-17.2 0-.8-.2-1.6-.5-2.3-.9-.2-.1-.4-.2-.6-.4-.1-.1-.1-.2-.1-.3v-4.6c1.6.7 3.2 1.2 4.9 1.5 2.2.4 4.5.6 6.7.5 2.3 0 4.5-.2 6.7-.5 1.7-.3 3.3-.8 4.9-1.5v4.5s0 .1-.1.3c-.2.3-.4.4-.6.5zm0-7.4c-.7.4-1.5.7-2.3.9-2.8.7-5.7 1.1-8.6 1-2.9 0-5.8-.3-8.6-1-.8-.2-1.6-.5-2.3-.9-.2-.1-.4-.2-.6-.4-.1-.1-.1-.2-.1-.3s0-.1.1-.3c.2-.2.4-.3.6-.4.7-.4 1.5-.7 2.3-.9 5.7-1.4 11.6-1.4 17.2 0 .8.2 1.6.5 2.3.9.2.1.4.2.6.4.1.1.1.2.1.3s0 .1-.1.3c-.2.2-.4.3-.6.4z"/>
</svg>
