<svg xmlns="http://www.w3.org/2000/svg" xml:space="preserve" id="Layer_1" x="0" y="0" version="1.1" viewBox="0 0 50 50">
  <linearGradient id="SVGID_1_" x1="1.4688" x2="48.5312" y1="1.4688" y2="48.5312" gradientUnits="userSpaceOnUse">
    <stop offset="0" stop-color="#399be2"/>
    <stop offset="1" stop-color="#005b96"/>
  </linearGradient>
  <path fill="url(#SVGID_1_)" d="M45 50H5c-2.8 0-5-2.2-5-5V5c0-2.8 2.2-5 5-5h40c2.8 0 5 2.2 5 5v40c0 2.8-2.2 5-5 5z"/>
  <path id="lesson" fill="#fff" d="M37.2 20.6v-1.9h.1c1.4 0 2.5-1.1 2.5-2.5v-3.1c0-1.4-1.1-2.5-2.5-2.5h-3.1c-1.4 0-2.5 1.1-2.5 2.5v.9H19.3c-.3-2.5-2.6-4.3-5.1-3.9-2.3.3-4 2.2-4 4.5 0 2.5 2 4.6 4.6 4.6 2.1 0 3.9-1.4 4.4-3.4h12.6v.4c0 1.4 1.1 2.5 2.5 2.5h1v1.9c0 2-2.1 3.5-4.2 3.5H19.4c-3.4 0-6.1 2.5-6.1 5.7v1.5H13c-1.4 0-2.5 1.1-2.5 2.5v3c0 1.4 1.1 2.5 2.5 2.5h3.1c1.4 0 2.5-1.1 2.5-2.5v-.7h12.2c.5 2.4 2.8 4 5.2 3.5 2.1-.4 3.5-2.2 3.6-4.3 0-2.5-2-4.4-4.4-4.4-2.1 0-3.9 1.5-4.3 3.6H18.5v-.7c0-1.4-1.1-2.5-2.5-2.5h-.8v-1.5c0-2 2.1-3.9 4.2-3.9H31c3.4 0 6.2-2.1 6.2-5.3zm-22.4-3.1c-1.5 0-2.8-1.3-2.8-2.8 0-1.5 1.3-2.8 2.8-2.8 1.5 0 2.8 1.3 2.8 2.8 0 1.6-1.2 2.8-2.8 2.8zm19.3-.7c-.2 0-.4-.2-.4-.4v-3.3c0-.2.2-.4.4-.4h3.3c.2 0 .4.2.4.4v3.4c0 .2-.2.4-.4.4l-3.3-.1zm.9 15.9c1.5 0 2.7 1.2 2.7 2.7 0 1.5-1.2 2.7-2.7 2.7-1.5 0-2.7-1.2-2.7-2.7 0-1.5 1.2-2.7 2.7-2.7zm-18.8.5c.2 0 .4.2.4.4V37c0 .2-.2.4-.4.4h-3.3c-.2 0-.4-.2-.4-.4v-3.3c0-.2.2-.4.4-.4l3.3-.1z"/>
</svg>
