<svg xmlns="http://www.w3.org/2000/svg" xml:space="preserve" id="Layer_1" x="0" y="0" version="1.1" viewBox="0 0 50 50">
  <linearGradient id="SVGID_1_" x1="1.4688" x2="48.5312" y1="1.4688" y2="48.5312" gradientUnits="userSpaceOnUse">
    <stop offset="0" stop-color="#399be2"/>
    <stop offset="1" stop-color="#005b96"/>
  </linearGradient>
  <path fill="url(#SVGID_1_)" d="M45 50H5c-2.8 0-5-2.2-5-5V5c0-2.8 2.2-5 5-5h40c2.8 0 5 2.2 5 5v40c0 2.8-2.2 5-5 5z"/>
  <path id="folder" fill="#fff" d="M39 17.8c0-.7-.5-1.3-1.2-1.3H25.3l-2.8-2.8c-.2-.2-.6-.4-.9-.4h-9.4c-.7 0-1.2.6-1.2 1.3v20.9c0 .7.6 1.2 1.2 1.3h25.5c.6 0 1.1-.4 1.2-1V19.9l.1-2.1zm-2 .8v16.1H13V15.3h8.3l2.9 3c.1.1.3.2.6.2H37z"/>
</svg>
