<svg xmlns="http://www.w3.org/2000/svg" xml:space="preserve" id="Layer_1" x="0" y="0" version="1.1" viewBox="0 0 50 50">
  <linearGradient id="SVGID_1_" x1="1.45" x2="48.55" y1="48.55" y2="1.45" gradientTransform="matrix(1 0 0 -1 0 50)" gradientUnits="userSpaceOnUse">
    <stop offset="0" stop-color="#399be2"/>
    <stop offset="1" stop-color="#005b96"/>
  </linearGradient>
  <path fill="url(#SVGID_1_)" d="M45 50H5c-2.8 0-5-2.2-5-5V5c0-2.8 2.2-5 5-5h40c2.8 0 5 2.2 5 5v40c0 2.8-2.2 5-5 5z"/>
  <path id="page" fill="#fff" d="m35 17.5-4.8-4.8c-.2-.2-.6-.4-.9-.4H15.9c-.7 0-1.3.6-1.3 1.3v22.8c0 .7.6 1.3 1.2 1.3H34c.7 0 1.3-.6 1.3-1.3v-18c.1-.3-.1-.6-.3-.9zM29.2 15l3.6 3.6h-3.6V15zM16.7 35.5V14.4h10.2v5.1c0 .7.6 1.3 1.3 1.3h5.1v14.7H16.7zm13.6-9.1h-11c-.4 0-.8.4-.8.8s.4.8.8.8h11.1c.4 0 .8-.4.8-.8s-.4-.8-.9-.8zm0 2.7h-11c-.4 0-.8.4-.8.8s.4.8.8.8h11.1c.4 0 .8-.4.8-.8s-.4-.8-.9-.8zm-11-3.9h6.3c.4 0 .8-.4.8-.8s-.4-.8-.8-.8h-6.3c-.4 0-.8.4-.8.8s.3.8.8.8z"/>
</svg>
