<svg xmlns="http://www.w3.org/2000/svg" xml:space="preserve" id="Layer_1" x="0" y="0" version="1.1" viewBox="0 0 50 50">
  <linearGradient id="SVGID_1_" x1="1.4688" x2="48.5312" y1="1.4688" y2="48.5312" gradientUnits="userSpaceOnUse">
    <stop offset="0" stop-color="#399be2"/>
    <stop offset="1" stop-color="#005b96"/>
  </linearGradient>
  <path fill="url(#SVGID_1_)" d="M45 50H5c-2.8 0-5-2.2-5-5V5c0-2.8 2.2-5 5-5h40c2.8 0 5 2.2 5 5v40c0 2.8-2.2 5-5 5z"/>
  <path id="book-2-6" fill="#fff" fill-rule="evenodd" d="M38.9 12.9c0-.5-.4-1-1-1-.1 0-.3 0-.4.1l-1.8.9v-1.7c0-.5-.5-1-1-1-.1 0-.3 0-.4.1L25 15l-9.3-4.6c-.5-.2-1.1 0-1.3.4-.1.1-.1.3-.1.4v1.7l-1.8-.9c-.5-.2-1.1 0-1.3.5-.1.1-.1.3-.1.4v19.4c0 .4.2.7.5.9l13 6.5c.3.1.6.1.9 0l13-6.5c.3-.2.5-.5.5-.9l-.1-19.4zM24.7 36c.2.1.3.1.5 0h.1l9.8-4.8c.3-.2.5-.5.5-.9V15.1l1.3-.6v17.2l-12 6-12-6V14.5l1.3.6v15.1c0 .4.2.7.5.9 0 0 9.7 4.8 9.8 4.8.1.1.2.1.2.1zm1.2-2.5V16.7l7.8-3.9v16.8l-7.8 3.9zm-9.7-3.9V12.8l7.8 3.9v16.8l-7.8-3.9z" clip-rule="evenodd"/>
</svg>
